<svg width="182" height="211" viewBox="0 0 182 211" fill="none" xmlns="http://www.w3.org/2000/svg">
<path d="M151.778 203.359C151.254 203.359 150.709 203.304 150.141 203.195C149.574 203.086 149.017 202.933 148.471 202.736C147.947 202.518 147.478 202.267 147.063 201.983C146.67 201.7 146.375 201.383 146.179 201.034C146.07 200.815 146.004 200.619 145.983 200.444C145.961 200.248 145.993 200.062 146.081 199.888C146.168 199.713 146.299 199.538 146.474 199.364C146.692 199.102 146.91 198.982 147.129 199.004C147.347 199.004 147.62 199.145 147.947 199.429C148.187 199.582 148.471 199.757 148.799 199.953C149.126 200.128 149.464 200.292 149.814 200.444C150.163 200.575 150.512 200.695 150.862 200.805C151.233 200.892 151.593 200.936 151.942 200.936C152.946 200.936 153.754 200.75 154.365 200.379C154.976 199.986 155.282 199.473 155.282 198.84C155.282 198.469 155.206 198.152 155.053 197.89C154.9 197.628 154.693 197.41 154.431 197.235C154.169 197.039 153.874 196.875 153.547 196.744C153.219 196.613 152.848 196.493 152.433 196.384C152.04 196.253 151.647 196.133 151.254 196.024C150.665 195.871 150.087 195.696 149.519 195.5C148.951 195.303 148.438 195.052 147.98 194.747C147.522 194.419 147.15 194.015 146.867 193.535C146.583 193.033 146.441 192.4 146.441 191.636C146.441 190.741 146.67 189.966 147.129 189.311C147.587 188.656 148.231 188.154 149.061 187.805C149.89 187.434 150.862 187.248 151.975 187.248C152.455 187.248 152.903 187.281 153.317 187.346C153.732 187.412 154.125 187.521 154.496 187.674C154.889 187.805 155.26 187.968 155.61 188.165C155.959 188.34 156.297 188.558 156.625 188.82C157.018 189.082 157.225 189.366 157.247 189.671C157.269 189.977 157.149 190.293 156.887 190.621C156.69 190.905 156.472 191.09 156.232 191.177C155.992 191.243 155.751 191.177 155.511 190.981C155.162 190.719 154.791 190.49 154.398 190.293C154.005 190.097 153.601 189.933 153.186 189.802C152.772 189.671 152.346 189.606 151.909 189.606C151.364 189.606 150.872 189.693 150.436 189.868C150.021 190.02 149.694 190.261 149.453 190.588C149.235 190.894 149.126 191.243 149.126 191.636C149.126 191.985 149.213 192.269 149.388 192.487C149.584 192.706 149.825 192.891 150.108 193.044C150.414 193.197 150.763 193.339 151.156 193.47C151.571 193.579 151.997 193.688 152.433 193.797C153.066 193.95 153.71 194.135 154.365 194.354C155.042 194.55 155.642 194.823 156.166 195.172C156.712 195.5 157.149 195.947 157.476 196.515C157.825 197.061 158 197.792 158 198.709C158 200.15 157.432 201.285 156.297 202.114C155.162 202.944 153.656 203.359 151.778 203.359Z" fill="#FCA311"/>
<path d="M139.301 203.261C138.166 203.261 137.096 203.075 136.092 202.704C135.11 202.333 134.236 201.798 133.472 201.099C132.73 200.401 132.141 199.571 131.704 198.611C131.289 197.628 131.082 196.515 131.082 195.271C131.082 194.026 131.289 192.924 131.704 191.963C132.141 190.981 132.73 190.141 133.472 189.442C134.215 188.743 135.077 188.209 136.059 187.838C137.063 187.466 138.122 187.281 139.236 187.281C139.978 187.281 140.709 187.401 141.429 187.641C142.15 187.859 142.783 188.154 143.329 188.525C143.896 188.874 144.3 189.246 144.54 189.639C144.759 189.922 144.911 190.162 144.999 190.359C145.108 190.534 145.119 190.741 145.031 190.981C144.944 191.156 144.824 191.319 144.671 191.472C144.518 191.603 144.366 191.712 144.213 191.8C143.82 192.105 143.427 192.149 143.034 191.931C142.794 191.691 142.521 191.472 142.215 191.276C141.932 191.057 141.626 190.861 141.299 190.686C140.971 190.512 140.633 190.381 140.283 190.293C139.956 190.184 139.607 190.13 139.236 190.13C138.21 190.13 137.304 190.348 136.518 190.785C135.732 191.199 135.121 191.8 134.684 192.586C134.269 193.35 134.062 194.245 134.062 195.271C134.062 196.297 134.269 197.192 134.684 197.956C135.121 198.72 135.721 199.32 136.485 199.757C137.271 200.193 138.166 200.412 139.17 200.412C139.629 200.412 140.065 200.357 140.48 200.248C140.916 200.117 141.32 199.953 141.691 199.757C142.063 199.538 142.368 199.309 142.608 199.069C142.827 198.916 143.012 198.785 143.165 198.676C143.318 198.567 143.503 198.512 143.722 198.512C143.896 198.512 144.082 198.589 144.278 198.742C144.475 198.873 144.682 199.08 144.9 199.364C145.075 199.56 145.173 199.768 145.195 199.986C145.239 200.204 145.206 200.412 145.097 200.608C144.988 200.805 144.813 201.001 144.573 201.198C144.224 201.547 143.754 201.885 143.165 202.213C142.597 202.518 141.975 202.769 141.299 202.966C140.622 203.162 139.956 203.261 139.301 203.261Z" fill="#FCA311"/>
<path d="M122.32 203.391C121.251 203.391 120.225 203.184 119.242 202.769C118.282 202.355 117.419 201.787 116.655 201.067C115.891 200.324 115.291 199.462 114.854 198.48C114.418 197.497 114.199 196.428 114.199 195.271C114.199 194.136 114.407 193.088 114.822 192.127C115.236 191.145 115.815 190.283 116.557 189.54C117.299 188.798 118.151 188.22 119.111 187.805C120.094 187.368 121.141 187.15 122.255 187.15C123.761 187.15 125.115 187.51 126.315 188.23C127.538 188.929 128.509 189.89 129.229 191.112C129.95 192.335 130.31 193.71 130.31 195.238C130.31 196.439 130.092 197.541 129.655 198.545C129.219 199.528 128.629 200.379 127.887 201.099C127.145 201.82 126.293 202.387 125.333 202.802C124.372 203.195 123.368 203.391 122.32 203.391ZM122.255 200.543C123.172 200.543 124.023 200.313 124.809 199.855C125.595 199.397 126.228 198.764 126.708 197.956C127.188 197.148 127.428 196.231 127.428 195.205C127.428 194.179 127.199 193.273 126.741 192.487C126.304 191.701 125.693 191.09 124.907 190.654C124.121 190.217 123.226 189.999 122.222 189.999C121.261 189.999 120.388 190.228 119.602 190.686C118.838 191.145 118.216 191.767 117.736 192.553C117.278 193.339 117.048 194.234 117.048 195.238C117.048 196.286 117.288 197.214 117.769 198.021C118.249 198.807 118.882 199.429 119.668 199.888C120.476 200.324 121.338 200.543 122.255 200.543Z" fill="#FCA311"/>
<path d="M104.667 203.195C103.685 203.195 102.746 202.999 101.851 202.606C100.956 202.213 100.17 201.656 99.4935 200.936C98.8386 200.215 98.3147 199.375 97.9218 198.414C97.5507 197.432 97.3651 196.362 97.3651 195.205C97.3651 194.07 97.5507 193.022 97.9218 192.062C98.3147 191.101 98.8386 190.272 99.4935 189.573C100.17 188.853 100.956 188.296 101.851 187.903C102.746 187.51 103.685 187.314 104.667 187.314C105.737 187.314 106.697 187.51 107.549 187.903C108.422 188.296 109.164 188.853 109.776 189.573C110.409 190.272 110.889 191.112 111.216 192.094C111.544 193.055 111.707 194.103 111.707 195.238C111.729 196.395 111.566 197.454 111.216 198.414C110.889 199.375 110.42 200.215 109.808 200.936C109.197 201.656 108.455 202.213 107.582 202.606C106.73 202.999 105.759 203.195 104.667 203.195ZM105.093 200.412C106.01 200.412 106.828 200.193 107.549 199.757C108.291 199.32 108.87 198.72 109.284 197.956C109.721 197.17 109.939 196.275 109.939 195.271C109.939 194.245 109.721 193.35 109.284 192.586C108.87 191.8 108.291 191.188 107.549 190.752C106.828 190.315 106.01 190.097 105.093 190.097C104.176 190.097 103.347 190.315 102.604 190.752C101.862 191.188 101.273 191.8 100.836 192.586C100.421 193.35 100.214 194.245 100.214 195.271C100.214 196.275 100.421 197.17 100.836 197.956C101.273 198.72 101.862 199.32 102.604 199.757C103.368 200.193 104.198 200.412 105.093 200.412ZM111.511 203.195C111.031 203.195 110.681 203.108 110.463 202.933C110.245 202.758 110.114 202.464 110.07 202.049V181.55C110.07 181.223 110.092 180.95 110.136 180.732C110.201 180.514 110.332 180.35 110.529 180.241C110.747 180.11 111.063 180.044 111.478 180.044C111.893 180.044 112.199 180.11 112.395 180.241C112.613 180.35 112.755 180.514 112.821 180.732C112.886 180.95 112.919 181.212 112.919 181.518V201.689C112.919 201.994 112.886 202.267 112.821 202.507C112.755 202.726 112.624 202.889 112.428 202.999C112.231 203.13 111.926 203.195 111.511 203.195Z" fill="#FCA311"/>
<path d="M88.3089 203.391C87.2392 203.391 86.2132 203.184 85.2309 202.769C84.2703 202.355 83.408 201.787 82.644 201.067C81.8799 200.324 81.2796 199.462 80.843 198.48C80.4064 197.497 80.1881 196.428 80.1881 195.271C80.1881 194.136 80.3955 193.088 80.8103 192.127C81.225 191.145 81.8035 190.283 82.5458 189.54C83.288 188.798 84.1394 188.22 85.0999 187.805C86.0822 187.368 87.1301 187.15 88.2434 187.15C89.7497 187.15 91.1031 187.51 92.3038 188.23C93.5263 188.929 94.4977 189.89 95.2181 191.112C95.9385 192.335 96.2987 193.71 96.2987 195.238C96.2987 196.439 96.0804 197.541 95.6438 198.545C95.2072 199.528 94.6178 200.379 93.8756 201.099C93.1333 201.82 92.282 202.387 91.3214 202.802C90.3609 203.195 89.3567 203.391 88.3089 203.391ZM88.2434 200.543C89.1603 200.543 90.0117 200.313 90.7975 199.855C91.5834 199.397 92.2165 198.764 92.6967 197.956C93.177 197.148 93.4171 196.231 93.4171 195.205C93.4171 194.179 93.1879 193.273 92.7295 192.487C92.2929 191.701 91.6816 191.09 90.8958 190.654C90.1099 190.217 89.2149 189.999 88.2107 189.999C87.2501 189.999 86.3769 190.228 85.5911 190.686C84.827 191.145 84.2048 191.767 83.7246 192.553C83.2662 193.339 83.0369 194.234 83.0369 195.238C83.0369 196.286 83.2771 197.214 83.7573 198.021C84.2376 198.807 84.8707 199.429 85.6565 199.888C86.4643 200.324 87.3265 200.543 88.2434 200.543Z" fill="black"/>
<path d="M77.2806 203.195C76.8658 203.195 76.5493 203.13 76.331 202.999C76.1345 202.889 76.0035 202.726 75.938 202.507C75.8726 202.289 75.8398 202.027 75.8398 201.721V188.787C75.8398 188.482 75.8726 188.22 75.938 188.001C76.0035 187.783 76.1345 187.619 76.331 187.51C76.5493 187.401 76.8767 187.346 77.3133 187.346C77.7281 187.346 78.0337 187.412 78.2302 187.543C78.4267 187.652 78.5577 187.816 78.6231 188.034C78.6886 188.252 78.7214 188.525 78.7214 188.853V201.754C78.7214 202.06 78.6886 202.322 78.6231 202.54C78.5577 202.758 78.4158 202.922 78.1975 203.031C78.001 203.14 77.6954 203.195 77.2806 203.195ZM77.2806 183.417C76.8003 183.417 76.4401 183.351 76.2 183.22C75.9599 183.068 75.7962 182.86 75.7088 182.598C75.6433 182.336 75.6106 182.031 75.6106 181.681C75.6106 181.332 75.6543 181.037 75.7416 180.797C75.8289 180.535 75.9926 180.35 76.2328 180.241C76.4729 180.11 76.8331 180.044 77.3133 180.044C77.7718 180.044 78.1211 180.11 78.3612 180.241C78.6013 180.372 78.7541 180.568 78.8196 180.83C78.9069 181.092 78.9506 181.398 78.9506 181.747C78.9506 182.096 78.9069 182.402 78.8196 182.664C78.7541 182.904 78.6013 183.089 78.3612 183.22C78.1211 183.351 77.7609 183.417 77.2806 183.417Z" fill="black"/>
<path d="M64.9703 203.195C63.9879 203.195 63.0492 202.999 62.1542 202.606C61.2591 202.213 60.4733 201.656 59.7965 200.936C59.1416 200.215 58.6177 199.375 58.2248 198.414C57.8536 197.432 57.6681 196.362 57.6681 195.205C57.6681 194.07 57.8536 193.022 58.2248 192.062C58.6177 191.101 59.1416 190.272 59.7965 189.573C60.4733 188.853 61.2591 188.296 62.1542 187.903C63.0492 187.51 63.9879 187.314 64.9703 187.314C66.0399 187.314 67.0005 187.51 67.8518 187.903C68.725 188.296 69.4672 188.853 70.0785 189.573C70.7116 190.272 71.1918 191.112 71.5193 192.094C71.8467 193.055 72.0105 194.103 72.0105 195.238C72.0323 196.395 71.8686 197.454 71.5193 198.414C71.1918 199.375 70.7225 200.215 70.1112 200.936C69.5 201.656 68.7578 202.213 67.8846 202.606C67.0332 202.999 66.0618 203.195 64.9703 203.195ZM65.3959 200.412C66.3128 200.412 67.1314 200.193 67.8518 199.757C68.594 199.32 69.1725 198.72 69.5873 197.956C70.0239 197.17 70.2422 196.275 70.2422 195.271C70.2422 194.245 70.0239 193.35 69.5873 192.586C69.1725 191.8 68.594 191.188 67.8518 190.752C67.1314 190.315 66.3128 190.097 65.3959 190.097C64.4791 190.097 63.6495 190.315 62.9073 190.752C62.1651 191.188 61.5757 191.8 61.1391 192.586C60.7243 193.35 60.5169 194.245 60.5169 195.271C60.5169 196.275 60.7243 197.17 61.1391 197.956C61.5757 198.72 62.1651 199.32 62.9073 199.757C63.6714 200.193 64.5009 200.412 65.3959 200.412ZM71.814 203.195C71.3337 203.195 70.9844 203.108 70.7661 202.933C70.5478 202.758 70.4169 202.464 70.3732 202.049V181.55C70.3732 181.223 70.395 180.95 70.4387 180.732C70.5042 180.514 70.6352 180.35 70.8316 180.241C71.0499 180.11 71.3665 180.044 71.7812 180.044C72.196 180.044 72.5016 180.11 72.6981 180.241C72.9164 180.35 73.0583 180.514 73.1238 180.732C73.1893 180.95 73.222 181.212 73.222 181.518V201.689C73.222 201.994 73.1893 202.267 73.1238 202.507C73.0583 202.726 72.9273 202.889 72.7308 202.999C72.5344 203.13 72.2288 203.195 71.814 203.195Z" fill="black"/>
<path d="M48.2714 203.228C47.3108 203.228 46.4158 203.053 45.5863 202.704C44.7786 202.355 44.0691 201.863 43.4578 201.23C42.8466 200.597 42.3663 199.833 42.0171 198.938C41.6896 198.043 41.5259 197.028 41.5259 195.893V188.787C41.5259 188.482 41.5586 188.22 41.6241 188.001C41.6896 187.783 41.8206 187.619 42.0171 187.51C42.2354 187.379 42.5519 187.314 42.9667 187.314C43.3814 187.314 43.6871 187.379 43.8835 187.51C44.1018 187.641 44.2437 187.816 44.3092 188.034C44.3747 188.252 44.4074 188.514 44.4074 188.82V195.926C44.4074 196.821 44.5603 197.617 44.8659 198.316C45.1715 198.993 45.6299 199.517 46.2412 199.888C46.8742 200.259 47.6383 200.444 48.5333 200.444C49.4502 200.444 50.2361 200.259 50.891 199.888C51.5677 199.517 52.0807 198.993 52.43 198.316C52.8011 197.617 52.9867 196.821 52.9867 195.926V188.787C52.9867 188.482 53.0194 188.22 53.0849 188.001C53.1504 187.783 53.2814 187.619 53.4778 187.51C53.6961 187.379 54.0127 187.314 54.4275 187.314C54.8422 187.314 55.1478 187.379 55.3443 187.51C55.5626 187.641 55.6936 187.816 55.7373 188.034C55.8028 188.252 55.8355 188.514 55.8355 188.82V201.82C55.8355 202.082 55.8028 202.322 55.7373 202.54C55.6936 202.737 55.5626 202.889 55.3443 202.999C55.1478 203.108 54.8422 203.162 54.4275 203.162C54.1218 203.162 53.8708 203.129 53.6743 203.064C53.4997 202.999 53.3687 202.911 53.2814 202.802C53.1941 202.693 53.1286 202.573 53.0849 202.442C53.0631 202.289 53.0522 202.136 53.0522 201.983L53.1831 200.575C52.9648 200.837 52.7029 201.121 52.3973 201.427C52.0916 201.732 51.7314 202.027 51.3167 202.311C50.9237 202.573 50.4762 202.791 49.9741 202.966C49.472 203.14 48.9044 203.228 48.2714 203.228Z" fill="black"/>
<path d="M38.3096 203.162C37.8294 203.162 37.4801 203.064 37.2618 202.867C37.0653 202.671 36.9452 202.365 36.9016 201.951L37.0326 200.313C36.8143 200.663 36.4759 201.066 36.0175 201.525C35.559 201.961 34.9587 202.354 34.2165 202.704C33.4743 203.031 32.5683 203.195 31.4986 203.195C30.4508 203.195 29.4684 202.987 28.5516 202.573C27.6565 202.158 26.8597 201.579 26.1612 200.837C25.4844 200.095 24.9496 199.244 24.5567 198.283C24.1856 197.323 24 196.297 24 195.205C24 194.135 24.1856 193.131 24.5567 192.192C24.9496 191.232 25.4954 190.391 26.1939 189.671C26.8925 188.951 27.6893 188.383 28.5843 187.968C29.5012 187.554 30.4726 187.346 31.4986 187.346C32.4592 187.346 33.2778 187.477 33.9545 187.739C34.6312 187.979 35.2097 188.307 35.69 188.721C36.1921 189.114 36.6287 189.562 36.9998 190.064L36.9343 188.689C36.9125 188.208 37.0107 187.87 37.229 187.674C37.4692 187.455 37.8403 187.346 38.3424 187.346C38.7571 187.346 39.0518 187.412 39.2265 187.543C39.423 187.674 39.5539 187.859 39.6194 188.099C39.6849 188.339 39.7177 188.634 39.7177 188.983V201.623C39.7177 201.929 39.6849 202.202 39.6194 202.442C39.5539 202.682 39.423 202.856 39.2265 202.966C39.03 203.097 38.7244 203.162 38.3096 203.162ZM31.9898 200.444C32.863 200.444 33.6598 200.215 34.3802 199.757C35.1224 199.298 35.7009 198.687 36.1157 197.923C36.5523 197.137 36.7706 196.242 36.7706 195.238C36.7706 194.212 36.5414 193.317 36.0829 192.553C35.6463 191.767 35.0569 191.156 34.3147 190.719C33.5943 190.261 32.7975 190.031 31.9243 190.031C30.8983 190.031 30.0033 190.271 29.2392 190.752C28.497 191.21 27.9076 191.832 27.471 192.618C27.0344 193.404 26.8161 194.299 26.8161 195.303C26.8161 196.286 27.0344 197.17 27.471 197.956C27.9076 198.72 28.5079 199.331 29.272 199.789C30.0578 200.226 30.9638 200.444 31.9898 200.444Z" fill="black"/>
<path d="M26.7467 169.057L26.7467 152.196L56.6789 140.334L56.6833 140.527L77.6836 132.152L77.6836 132.115L128.466 111.883L128.466 110.868L77.6836 90.7435L77.6836 90.7229L68.5954 87.1408L68.3258 87.0355L57.1353 82.6272L57.1353 82.5981L26.7467 70.6817L26.7467 53.6945L157.217 106.939L157.217 115.559L26.7467 169.057Z" fill="#FCA311"/>
<path d="M157.217 91.3735L157.217 103.136L26.7467 50.0626L26.7467 38.5874L157.217 91.3735Z" fill="#FFBD50"/>
<path d="M157.217 74.5525L157.217 86.6553L26.7467 34.2099L26.7467 22.1071L157.217 74.5525Z" fill="#FFE0AC"/>
<path d="M157.217 58.3305L157.217 70.1749L26.7467 18.8494L26.7467 7L157.217 58.3305Z" fill="#14213D"/>
<path d="M58.3341 79.7885H76.1879V113.759L58.3341 119.616V79.7885Z" fill="#FCA311"/>
</svg>
