<svg width="625" height="214" viewBox="0 0 625 214" fill="none" xmlns="http://www.w3.org/2000/svg">
<rect width="625" height="214" fill="white"/>
<path d="M575.423 134.65C573.663 134.65 571.83 134.467 569.923 134.1C568.017 133.733 566.147 133.22 564.313 132.56C562.553 131.827 560.977 130.983 559.583 130.03C558.263 129.077 557.273 128.013 556.613 126.84C556.247 126.107 556.027 125.447 555.953 124.86C555.88 124.2 555.99 123.577 556.283 122.99C556.577 122.403 557.017 121.817 557.603 121.23C558.337 120.35 559.07 119.947 559.803 120.02C560.537 120.02 561.453 120.497 562.553 121.45C563.36 121.963 564.313 122.55 565.413 123.21C566.513 123.797 567.65 124.347 568.823 124.86C569.997 125.3 571.17 125.703 572.343 126.07C573.59 126.363 574.8 126.51 575.973 126.51C579.347 126.51 582.06 125.887 584.113 124.64C586.167 123.32 587.193 121.597 587.193 119.47C587.193 118.223 586.937 117.16 586.423 116.28C585.91 115.4 585.213 114.667 584.333 114.08C583.453 113.42 582.463 112.87 581.363 112.43C580.263 111.99 579.017 111.587 577.623 111.22C576.303 110.78 574.983 110.377 573.663 110.01C571.683 109.497 569.74 108.91 567.833 108.25C565.927 107.59 564.203 106.747 562.663 105.72C561.123 104.62 559.877 103.263 558.923 101.65C557.97 99.9634 557.493 97.8367 557.493 95.27C557.493 92.2634 558.263 89.66 559.803 87.46C561.343 85.26 563.507 83.5734 566.293 82.4C569.08 81.1534 572.343 80.53 576.083 80.53C577.697 80.53 579.2 80.64 580.593 80.86C581.987 81.08 583.307 81.4467 584.553 81.96C585.873 82.4 587.12 82.95 588.293 83.61C589.467 84.1967 590.603 84.93 591.703 85.81C593.023 86.69 593.72 87.6434 593.793 88.67C593.867 89.6967 593.463 90.76 592.583 91.86C591.923 92.8134 591.19 93.4367 590.383 93.73C589.577 93.95 588.77 93.73 587.963 93.07C586.79 92.19 585.543 91.42 584.223 90.76C582.903 90.1 581.547 89.55 580.153 89.11C578.76 88.67 577.33 88.45 575.863 88.45C574.03 88.45 572.38 88.7434 570.913 89.33C569.52 89.8434 568.42 90.65 567.613 91.75C566.88 92.7767 566.513 93.95 566.513 95.27C566.513 96.4434 566.807 97.3967 567.393 98.13C568.053 98.8634 568.86 99.4867 569.813 100C570.84 100.513 572.013 100.99 573.333 101.43C574.727 101.797 576.157 102.163 577.623 102.53C579.75 103.043 581.913 103.667 584.113 104.4C586.387 105.06 588.403 105.977 590.163 107.15C591.997 108.25 593.463 109.753 594.563 111.66C595.737 113.493 596.323 115.95 596.323 119.03C596.323 123.87 594.417 127.683 590.603 130.47C586.79 133.257 581.73 134.65 575.423 134.65Z" fill="#FCA311"/>
<path d="M533.508 134.32C529.695 134.32 526.101 133.697 522.728 132.45C519.428 131.203 516.495 129.407 513.928 127.06C511.435 124.713 509.455 121.927 507.988 118.7C506.595 115.4 505.898 111.66 505.898 107.48C505.898 103.3 506.595 99.5966 507.988 96.3699C509.455 93.0699 511.435 90.2466 513.928 87.8999C516.421 85.5532 519.318 83.7566 522.618 82.5099C525.991 81.2632 529.548 80.6399 533.288 80.6399C535.781 80.6399 538.238 81.0432 540.658 81.8499C543.078 82.5832 545.205 83.5732 547.038 84.8199C548.945 85.9932 550.301 87.2399 551.108 88.5599C551.841 89.5132 552.355 90.3199 552.648 90.9799C553.015 91.5666 553.051 92.2632 552.758 93.0699C552.465 93.6566 552.061 94.2066 551.548 94.7199C551.035 95.1599 550.521 95.5266 550.008 95.8199C548.688 96.8466 547.368 96.9932 546.048 96.2599C545.241 95.4532 544.325 94.7199 543.298 94.0599C542.345 93.3266 541.318 92.6666 540.218 92.0799C539.118 91.4932 537.981 91.0532 536.808 90.7599C535.708 90.3932 534.535 90.2099 533.288 90.2099C529.841 90.2099 526.798 90.9432 524.158 92.4099C521.518 93.8032 519.465 95.8199 517.998 98.4599C516.605 101.027 515.908 104.033 515.908 107.48C515.908 110.927 516.605 113.933 517.998 116.5C519.465 119.067 521.481 121.083 524.048 122.55C526.688 124.017 529.695 124.75 533.068 124.75C534.608 124.75 536.075 124.567 537.468 124.2C538.935 123.76 540.291 123.21 541.538 122.55C542.785 121.817 543.811 121.047 544.618 120.24C545.351 119.727 545.975 119.287 546.488 118.92C547.001 118.553 547.625 118.37 548.358 118.37C548.945 118.37 549.568 118.627 550.228 119.14C550.888 119.58 551.585 120.277 552.318 121.23C552.905 121.89 553.235 122.587 553.308 123.32C553.455 124.053 553.345 124.75 552.978 125.41C552.611 126.07 552.025 126.73 551.218 127.39C550.045 128.563 548.468 129.7 546.488 130.8C544.581 131.827 542.491 132.67 540.218 133.33C537.945 133.99 535.708 134.32 533.508 134.32Z" fill="#FCA311"/>
<path d="M476.465 134.76C472.872 134.76 469.425 134.063 466.125 132.67C462.899 131.277 460.002 129.37 457.435 126.95C454.869 124.457 452.852 121.56 451.385 118.26C449.919 114.96 449.185 111.367 449.185 107.48C449.185 103.667 449.882 100.147 451.275 96.92C452.669 93.62 454.612 90.7233 457.105 88.23C459.599 85.7366 462.459 83.7933 465.685 82.4C468.985 80.9333 472.505 80.2 476.245 80.2C481.305 80.2 485.852 81.41 489.885 83.83C493.992 86.1766 497.255 89.4033 499.675 93.5099C502.095 97.6166 503.305 102.237 503.305 107.37C503.305 111.403 502.572 115.107 501.105 118.48C499.639 121.78 497.659 124.64 495.165 127.06C492.672 129.48 489.812 131.387 486.585 132.78C483.359 134.1 479.985 134.76 476.465 134.76ZM476.245 125.19C479.325 125.19 482.185 124.42 484.825 122.88C487.465 121.34 489.592 119.213 491.205 116.5C492.819 113.787 493.625 110.707 493.625 107.26C493.625 103.813 492.855 100.77 491.315 98.13C489.849 95.49 487.795 93.4366 485.155 91.9699C482.515 90.5033 479.509 89.77 476.135 89.77C472.909 89.77 469.975 90.54 467.335 92.08C464.769 93.62 462.679 95.71 461.065 98.35C459.525 100.99 458.755 103.997 458.755 107.37C458.755 110.89 459.562 114.007 461.175 116.72C462.789 119.36 464.915 121.45 467.555 122.99C470.269 124.457 473.165 125.19 476.245 125.19Z" fill="#FCA311"/>
<path d="M417.164 134.1C413.864 134.1 410.711 133.44 407.704 132.12C404.697 130.8 402.057 128.93 399.784 126.51C397.584 124.09 395.824 121.267 394.504 118.04C393.257 114.74 392.634 111.147 392.634 107.26C392.634 103.447 393.257 99.9267 394.504 96.7001C395.824 93.4734 397.584 90.6867 399.784 88.3401C402.057 85.9201 404.697 84.0501 407.704 82.7301C410.711 81.4101 413.864 80.7501 417.164 80.7501C420.758 80.7501 423.984 81.4101 426.844 82.7301C429.777 84.0501 432.271 85.9201 434.324 88.3401C436.451 90.6867 438.064 93.5101 439.164 96.8101C440.264 100.037 440.814 103.557 440.814 107.37C440.887 111.257 440.338 114.813 439.164 118.04C438.064 121.267 436.487 124.09 434.434 126.51C432.381 128.93 429.887 130.8 426.954 132.12C424.094 133.44 420.831 134.1 417.164 134.1ZM418.594 124.75C421.674 124.75 424.424 124.017 426.844 122.55C429.337 121.083 431.281 119.067 432.674 116.5C434.141 113.86 434.874 110.853 434.874 107.48C434.874 104.033 434.141 101.027 432.674 98.4601C431.281 95.8201 429.337 93.7667 426.844 92.3001C424.424 90.8334 421.674 90.1001 418.594 90.1001C415.514 90.1001 412.727 90.8334 410.234 92.3001C407.741 93.7667 405.761 95.8201 404.294 98.4601C402.901 101.027 402.204 104.033 402.204 107.48C402.204 110.853 402.901 113.86 404.294 116.5C405.761 119.067 407.741 121.083 410.234 122.55C412.801 124.017 415.587 124.75 418.594 124.75ZM440.154 134.1C438.541 134.1 437.368 133.807 436.634 133.22C435.901 132.633 435.461 131.643 435.314 130.25V61.3901C435.314 60.2901 435.387 59.3734 435.534 58.6401C435.754 57.9067 436.194 57.3567 436.854 56.9901C437.588 56.5501 438.651 56.3301 440.044 56.3301C441.437 56.3301 442.464 56.5501 443.124 56.9901C443.857 57.3567 444.334 57.9067 444.554 58.6401C444.774 59.3734 444.884 60.2534 444.884 61.2801V129.04C444.884 130.067 444.774 130.983 444.554 131.79C444.334 132.523 443.894 133.073 443.234 133.44C442.574 133.88 441.547 134.1 440.154 134.1Z" fill="#FCA311"/>
<path d="M362.211 134.76C358.618 134.76 355.171 134.063 351.871 132.67C348.645 131.277 345.748 129.37 343.181 126.95C340.615 124.457 338.598 121.56 337.131 118.26C335.665 114.96 334.931 111.367 334.931 107.48C334.931 103.667 335.628 100.147 337.021 96.92C338.415 93.62 340.358 90.7233 342.851 88.23C345.345 85.7366 348.205 83.7933 351.431 82.4C354.731 80.9333 358.251 80.2 361.991 80.2C367.051 80.2 371.598 81.41 375.631 83.83C379.738 86.1766 383.001 89.4033 385.421 93.5099C387.841 97.6166 389.051 102.237 389.051 107.37C389.051 111.403 388.318 115.107 386.851 118.48C385.385 121.78 383.405 124.64 380.911 127.06C378.418 129.48 375.558 131.387 372.331 132.78C369.105 134.1 365.731 134.76 362.211 134.76ZM361.991 125.19C365.071 125.19 367.931 124.42 370.571 122.88C373.211 121.34 375.338 119.213 376.951 116.5C378.565 113.787 379.371 110.707 379.371 107.26C379.371 103.813 378.601 100.77 377.061 98.13C375.595 95.49 373.541 93.4366 370.901 91.9699C368.261 90.5033 365.255 89.77 361.881 89.77C358.655 89.77 355.721 90.54 353.081 92.08C350.515 93.62 348.425 95.71 346.811 98.35C345.271 100.99 344.501 103.997 344.501 107.37C344.501 110.89 345.308 114.007 346.921 116.72C348.535 119.36 350.661 121.45 353.301 122.99C356.015 124.457 358.911 125.19 361.991 125.19Z" fill="black"/>
<path d="M325.164 134.1C323.77 134.1 322.707 133.88 321.974 133.44C321.314 133.073 320.874 132.523 320.654 131.79C320.434 131.057 320.324 130.177 320.324 129.15V85.7001C320.324 84.6734 320.434 83.7934 320.654 83.0601C320.874 82.3267 321.314 81.7767 321.974 81.4101C322.707 81.0434 323.807 80.8601 325.274 80.8601C326.667 80.8601 327.694 81.0801 328.354 81.5201C329.014 81.8867 329.454 82.4367 329.674 83.1701C329.894 83.9034 330.004 84.8201 330.004 85.9201V129.26C330.004 130.287 329.894 131.167 329.674 131.9C329.454 132.633 328.977 133.183 328.244 133.55C327.584 133.917 326.557 134.1 325.164 134.1ZM325.164 67.6601C323.55 67.6601 322.34 67.4401 321.534 67.0001C320.727 66.4867 320.177 65.7901 319.884 64.9101C319.664 64.0301 319.554 63.0034 319.554 61.8301C319.554 60.6567 319.7 59.6667 319.994 58.8601C320.287 57.9801 320.837 57.3567 321.644 56.9901C322.45 56.5501 323.66 56.3301 325.274 56.3301C326.814 56.3301 327.987 56.5501 328.794 56.9901C329.6 57.4301 330.114 58.0901 330.334 58.9701C330.627 59.8501 330.774 60.8767 330.774 62.0501C330.774 63.2234 330.627 64.2501 330.334 65.1301C330.114 65.9367 329.6 66.5601 328.794 67.0001C327.987 67.4401 326.777 67.6601 325.164 67.6601Z" fill="black"/>
<path d="M283.811 134.1C280.511 134.1 277.357 133.44 274.351 132.12C271.344 130.8 268.704 128.93 266.431 126.51C264.231 124.09 262.471 121.267 261.151 118.04C259.904 114.74 259.281 111.147 259.281 107.26C259.281 103.447 259.904 99.9267 261.151 96.7001C262.471 93.4734 264.231 90.6867 266.431 88.3401C268.704 85.9201 271.344 84.0501 274.351 82.7301C277.357 81.4101 280.511 80.7501 283.811 80.7501C287.404 80.7501 290.631 81.4101 293.491 82.7301C296.424 84.0501 298.917 85.9201 300.971 88.3401C303.097 90.6867 304.711 93.5101 305.811 96.8101C306.911 100.037 307.461 103.557 307.461 107.37C307.534 111.257 306.984 114.813 305.811 118.04C304.711 121.267 303.134 124.09 301.081 126.51C299.027 128.93 296.534 130.8 293.601 132.12C290.741 133.44 287.477 134.1 283.811 134.1ZM285.241 124.75C288.321 124.75 291.071 124.017 293.491 122.55C295.984 121.083 297.927 119.067 299.321 116.5C300.787 113.86 301.521 110.853 301.521 107.48C301.521 104.033 300.787 101.027 299.321 98.4601C297.927 95.8201 295.984 93.7667 293.491 92.3001C291.071 90.8334 288.321 90.1001 285.241 90.1001C282.161 90.1001 279.374 90.8334 276.881 92.3001C274.387 93.7667 272.407 95.8201 270.941 98.4601C269.547 101.027 268.851 104.033 268.851 107.48C268.851 110.853 269.547 113.86 270.941 116.5C272.407 119.067 274.387 121.083 276.881 122.55C279.447 124.017 282.234 124.75 285.241 124.75ZM306.801 134.1C305.187 134.1 304.014 133.807 303.281 133.22C302.547 132.633 302.107 131.643 301.961 130.25V61.3901C301.961 60.2901 302.034 59.3734 302.181 58.6401C302.401 57.9067 302.841 57.3567 303.501 56.9901C304.234 56.5501 305.297 56.3301 306.691 56.3301C308.084 56.3301 309.111 56.5501 309.771 56.9901C310.504 57.3567 310.981 57.9067 311.201 58.6401C311.421 59.3734 311.531 60.2534 311.531 61.2801V129.04C311.531 130.067 311.421 130.983 311.201 131.79C310.981 132.523 310.541 133.073 309.881 133.44C309.221 133.88 308.194 134.1 306.801 134.1Z" fill="black"/>
<path d="M227.714 134.21C224.487 134.21 221.481 133.623 218.694 132.45C215.981 131.277 213.597 129.627 211.544 127.5C209.491 125.373 207.877 122.807 206.704 119.8C205.604 116.793 205.054 113.383 205.054 109.57V85.7C205.054 84.6733 205.164 83.7933 205.384 83.06C205.604 82.3267 206.044 81.7767 206.704 81.41C207.437 80.97 208.501 80.75 209.894 80.75C211.287 80.75 212.314 80.97 212.974 81.41C213.707 81.85 214.184 82.4367 214.404 83.17C214.624 83.9033 214.734 84.7833 214.734 85.81V109.68C214.734 112.687 215.247 115.363 216.274 117.71C217.301 119.983 218.841 121.743 220.894 122.99C223.021 124.237 225.587 124.86 228.594 124.86C231.674 124.86 234.314 124.237 236.514 122.99C238.787 121.743 240.511 119.983 241.684 117.71C242.931 115.363 243.554 112.687 243.554 109.68V85.7C243.554 84.6733 243.664 83.7933 243.884 83.06C244.104 82.3267 244.544 81.7767 245.204 81.41C245.937 80.97 247.001 80.75 248.394 80.75C249.787 80.75 250.814 80.97 251.474 81.41C252.207 81.85 252.647 82.4367 252.794 83.17C253.014 83.9033 253.124 84.7833 253.124 85.81V129.48C253.124 130.36 253.014 131.167 252.794 131.9C252.647 132.56 252.207 133.073 251.474 133.44C250.814 133.807 249.787 133.99 248.394 133.99C247.367 133.99 246.524 133.88 245.864 133.66C245.277 133.44 244.837 133.147 244.544 132.78C244.251 132.413 244.031 132.01 243.884 131.57C243.811 131.057 243.774 130.543 243.774 130.03L244.214 125.3C243.481 126.18 242.601 127.133 241.574 128.16C240.547 129.187 239.337 130.177 237.944 131.13C236.624 132.01 235.121 132.743 233.434 133.33C231.747 133.917 229.841 134.21 227.714 134.21Z" fill="black"/>
<path d="M194.25 133.99C192.637 133.99 191.463 133.66 190.73 133C190.07 132.34 189.667 131.313 189.52 129.92L189.96 124.42C189.227 125.593 188.09 126.95 186.55 128.49C185.01 129.957 182.993 131.277 180.5 132.45C178.007 133.55 174.963 134.1 171.37 134.1C167.85 134.1 164.55 133.403 161.47 132.01C158.463 130.617 155.787 128.673 153.44 126.18C151.167 123.687 149.37 120.827 148.05 117.6C146.803 114.373 146.18 110.927 146.18 107.26C146.18 103.667 146.803 100.293 148.05 97.1401C149.37 93.9134 151.203 91.0901 153.55 88.6701C155.897 86.2501 158.573 84.3434 161.58 82.9501C164.66 81.5568 167.923 80.8601 171.37 80.8601C174.597 80.8601 177.347 81.3001 179.62 82.1801C181.893 82.9868 183.837 84.0868 185.45 85.4801C187.137 86.8001 188.603 88.3034 189.85 89.9901L189.63 85.3701C189.557 83.7568 189.887 82.6201 190.62 81.9601C191.427 81.2268 192.673 80.8601 194.36 80.8601C195.753 80.8601 196.743 81.0801 197.33 81.5201C197.99 81.9601 198.43 82.5834 198.65 83.3901C198.87 84.1968 198.98 85.1868 198.98 86.3601V128.82C198.98 129.847 198.87 130.763 198.65 131.57C198.43 132.377 197.99 132.963 197.33 133.33C196.67 133.77 195.643 133.99 194.25 133.99ZM173.02 124.86C175.953 124.86 178.63 124.09 181.05 122.55C183.543 121.01 185.487 118.957 186.88 116.39C188.347 113.75 189.08 110.743 189.08 107.37C189.08 103.923 188.31 100.917 186.77 98.3501C185.303 95.7101 183.323 93.6568 180.83 92.1901C178.41 90.6501 175.733 89.8801 172.8 89.8801C169.353 89.8801 166.347 90.6868 163.78 92.3001C161.287 93.8401 159.307 95.9301 157.84 98.5701C156.373 101.21 155.64 104.217 155.64 107.59C155.64 110.89 156.373 113.86 157.84 116.5C159.307 119.067 161.323 121.12 163.89 122.66C166.53 124.127 169.573 124.86 173.02 124.86Z" fill="black"/>
<path d="M27 177L27 162.384L50.4007 152.102L50.4041 152.269L66.8219 145.01L66.8219 144.977L106.523 127.44L106.523 126.56L66.8219 109.115L66.8219 109.097L59.7169 105.992L59.5061 105.901L50.7575 102.08L50.7575 102.055L27 91.7251L27 77L129 123.154L129 130.626L27 177Z" fill="#FCA311"/>
<path d="M129.5 109.5L129.5 119.75L27 73.5L27 63.5L129.5 109.5Z" fill="#FFBD50"/>
<path d="M129.5 95.5L129.5 106L27 60.5L27 50L129.5 95.5Z" fill="#FFE0AC"/>
<path d="M130 82.0946L130 92.5L27.5 47.4099L27.5 37L130 82.0946Z" fill="#14213D"/>
<path d="M52.5 99.5H64V128.5L52.5 133.5V99.5Z" fill="#FCA311"/>
</svg>
