<svg width="905" height="177" viewBox="0 0 905 177" fill="none" xmlns="http://www.w3.org/2000/svg">
<g clip-path="url(#clip0_2316_203)">
<path d="M132 143H117.384L107.102 119.599L107.269 119.596L100.01 103.178H99.9771L82.44 63.4769L82 59.7068L81.56 63.4769L64.1153 103.178H64.0974L60.9924 110.283L60.901 110.494L57.0798 119.242H57.0546L46.7251 143H32L78.1536 41H85.6259L132 143Z" fill="#14213D"/>
<path d="M138 143H123.384L113.102 119.599L113.269 119.596L106.01 103.178H105.977L88.44 63.4769L88 59.7068L87.56 63.4769L70.1153 103.178H70.0974L66.9924 110.283L66.901 110.494L63.0798 119.242H63.0546L52.7251 143H38L84.1536 41H91.6259L138 143Z" fill="#FFE0AC"/>
<path d="M145 143H130.384L120.102 119.599L120.269 119.596L113.01 103.178H112.977L95.44 63.4769L95 59.7068L94.56 63.4769L77.1153 103.178H77.0974L73.9924 110.283L73.901 110.494L70.0798 119.242H70.0546L59.7251 143H45L91.1536 41H98.6259L145 143Z" fill="#FFBD50"/>
<path d="M152 143H137.384L127.102 119.599L127.269 119.596L120.01 103.178H119.977L102.44 63.4769L102 59.7068L101.56 63.4769L84.1153 103.178H84.0974L80.9924 110.283L80.901 110.494L77.0798 119.242H77.0546L66.7251 143H52L98.1536 41H105.626L152 143Z" fill="#FCA311"/>
<path d="M254.325 139.503C251.876 139.503 250.094 139.002 248.981 138C247.979 136.998 247.367 135.439 247.144 133.324L247.812 124.974C246.699 126.755 244.973 128.815 242.635 131.153C240.297 133.38 237.235 135.384 233.45 137.165C229.665 138.835 225.044 139.67 219.589 139.67C214.245 139.67 209.235 138.612 204.559 136.497C199.994 134.382 195.931 131.431 192.368 127.646C188.917 123.861 186.189 119.519 184.185 114.62C182.292 109.721 181.346 104.489 181.346 98.922C181.346 93.4667 182.292 88.3453 184.185 83.558C186.189 78.6593 188.972 74.373 192.535 70.699C196.098 67.025 200.161 64.1303 204.726 62.015C209.402 59.8997 214.356 58.842 219.589 58.842C224.488 58.842 228.663 59.51 232.114 60.846C235.565 62.0707 238.516 63.7407 240.965 65.856C243.526 67.86 245.752 70.1423 247.645 72.703L247.311 65.689C247.2 63.2397 247.701 61.514 248.814 60.512C250.039 59.3987 251.931 58.842 254.492 58.842C256.607 58.842 258.11 59.176 259.001 59.844C260.003 60.512 260.671 61.4583 261.005 62.683C261.339 63.9077 261.506 65.4107 261.506 67.192V131.654C261.506 133.213 261.339 134.604 261.005 135.829C260.671 137.054 260.003 137.944 259.001 138.501C257.999 139.169 256.44 139.503 254.325 139.503ZM222.094 125.642C226.547 125.642 230.611 124.473 234.285 122.135C238.07 119.797 241.021 116.68 243.136 112.783C245.363 108.775 246.476 104.21 246.476 99.089C246.476 93.8563 245.307 89.2917 242.969 85.395C240.742 81.387 237.736 78.2697 233.951 76.043C230.277 73.705 226.213 72.536 221.76 72.536C216.527 72.536 211.963 73.7607 208.066 76.21C204.281 78.548 201.275 81.721 199.048 85.729C196.821 89.737 195.708 94.3017 195.708 99.423C195.708 104.433 196.821 108.942 199.048 112.95C201.275 116.847 204.336 119.964 208.233 122.302C212.241 124.529 216.861 125.642 222.094 125.642ZM305.13 139.837C300.231 139.837 295.666 138.946 291.436 137.165C287.316 135.384 283.698 132.879 280.581 129.65C277.463 126.421 275.014 122.525 273.233 117.96C271.563 113.395 270.728 108.218 270.728 102.429V66.19C270.728 64.6313 270.895 63.2953 271.229 62.182C271.563 61.0687 272.231 60.2337 273.233 59.677C274.346 59.009 275.96 58.675 278.076 58.675C280.191 58.675 281.75 59.009 282.752 59.677C283.865 60.345 284.589 61.2357 284.923 62.349C285.257 63.4623 285.424 64.7983 285.424 66.357V102.596C285.424 107.161 286.203 111.224 287.762 114.787C289.32 118.238 291.658 120.91 294.776 122.803C298.004 124.696 301.901 125.642 306.466 125.642C311.142 125.642 315.15 124.696 318.49 122.803C321.941 120.91 324.557 118.238 326.339 114.787C328.231 111.224 329.178 107.161 329.178 102.596V66.19C329.178 64.6313 329.345 63.2953 329.679 62.182C330.013 61.0687 330.681 60.2337 331.683 59.677C332.796 59.009 334.41 58.675 336.526 58.675C338.641 58.675 340.2 59.009 341.202 59.677C342.315 60.345 342.983 61.2357 343.206 62.349C343.54 63.4623 343.707 64.7983 343.707 66.357V132.656C343.707 133.992 343.54 135.217 343.206 136.33C342.983 137.332 342.315 138.111 341.202 138.668C340.2 139.225 338.641 139.503 336.526 139.503C334.967 139.503 333.687 139.336 332.685 139.002C331.794 138.668 331.126 138.223 330.681 137.666C330.235 137.109 329.901 136.497 329.679 135.829C329.567 135.05 329.512 134.27 329.512 133.491L330.18 126.31C329.066 127.646 327.73 129.093 326.172 130.652C324.613 132.211 322.776 133.714 320.661 135.161C318.657 136.497 316.374 137.61 313.814 138.501C311.253 139.392 308.358 139.837 305.13 139.837ZM390.294 139.67C385.284 139.67 380.497 138.668 375.932 136.664C371.368 134.66 367.36 131.821 363.908 128.147C360.568 124.473 357.896 120.187 355.892 115.288C354 110.278 353.053 104.823 353.053 98.922C353.053 93.1327 354 87.7887 355.892 82.89C357.896 77.9913 360.568 73.7607 363.908 70.198C367.36 66.524 371.368 63.685 375.932 61.681C380.497 59.677 385.284 58.675 390.294 58.675C395.75 58.675 400.648 59.677 404.99 61.681C409.444 63.685 413.229 66.524 416.346 70.198C419.575 73.7607 422.024 78.047 423.694 83.057C425.364 87.9557 426.199 93.2997 426.199 99.089C426.311 104.99 425.476 110.389 423.694 115.288C422.024 120.187 419.631 124.473 416.513 128.147C413.396 131.821 409.611 134.66 405.157 136.664C400.815 138.668 395.861 139.67 390.294 139.67ZM392.465 125.475C397.141 125.475 401.316 124.362 404.99 122.135C408.776 119.908 411.726 116.847 413.841 112.95C416.068 108.942 417.181 104.377 417.181 99.256C417.181 94.0233 416.068 89.4587 413.841 85.562C411.726 81.554 408.776 78.4367 404.99 76.21C401.316 73.9833 397.141 72.87 392.465 72.87C387.789 72.87 383.559 73.9833 379.773 76.21C375.988 78.4367 372.982 81.554 370.755 85.562C368.64 89.4587 367.582 94.0233 367.582 99.256C367.582 104.377 368.64 108.942 370.755 112.95C372.982 116.847 375.988 119.908 379.773 122.135C383.67 124.362 387.901 125.475 392.465 125.475ZM425.197 139.67C422.748 139.67 420.967 139.225 419.853 138.334C418.74 137.443 418.072 135.94 417.849 133.825V29.283C417.849 27.613 417.961 26.2213 418.183 25.108C418.517 23.9947 419.185 23.1597 420.187 22.603C421.301 21.935 422.915 21.601 425.03 21.601C427.146 21.601 428.704 21.935 429.706 22.603C430.82 23.1597 431.543 23.9947 431.877 25.108C432.211 26.2213 432.378 27.5573 432.378 29.116V131.988C432.378 133.547 432.211 134.938 431.877 136.163C431.543 137.276 430.875 138.111 429.873 138.668C428.871 139.336 427.313 139.67 425.197 139.67ZM453.076 139.67C450.961 139.67 449.346 139.336 448.233 138.668C447.231 138.111 446.563 137.276 446.229 136.163C445.895 135.05 445.728 133.714 445.728 132.155V66.19C445.728 64.6313 445.895 63.2953 446.229 62.182C446.563 61.0687 447.231 60.2337 448.233 59.677C449.346 59.1203 451.016 58.842 453.243 58.842C455.358 58.842 456.917 59.176 457.919 59.844C458.921 60.4007 459.589 61.2357 459.923 62.349C460.257 63.4623 460.424 64.854 460.424 66.524V132.322C460.424 133.881 460.257 135.217 459.923 136.33C459.589 137.443 458.865 138.278 457.752 138.835C456.75 139.392 455.191 139.67 453.076 139.67ZM453.076 38.802C450.627 38.802 448.79 38.468 447.565 37.8C446.34 37.0207 445.505 35.963 445.06 34.627C444.726 33.291 444.559 31.7323 444.559 29.951C444.559 28.1697 444.782 26.6667 445.227 25.442C445.672 24.106 446.507 23.1597 447.732 22.603C448.957 21.935 450.794 21.601 453.243 21.601C455.581 21.601 457.362 21.935 458.587 22.603C459.812 23.271 460.591 24.273 460.925 25.609C461.37 26.945 461.593 28.5037 461.593 30.285C461.593 32.0663 461.37 33.625 460.925 34.961C460.591 36.1857 459.812 37.132 458.587 37.8C457.362 38.468 455.525 38.802 453.076 38.802ZM509.321 140.672C503.866 140.672 498.633 139.614 493.623 137.499C488.724 135.384 484.327 132.489 480.43 128.815C476.533 125.03 473.472 120.632 471.245 115.622C469.018 110.612 467.905 105.157 467.905 99.256C467.905 93.4667 468.963 88.1227 471.078 83.224C473.193 78.214 476.144 73.8163 479.929 70.031C483.714 66.2457 488.056 63.2953 492.955 61.18C497.965 58.9533 503.309 57.84 508.987 57.84C516.669 57.84 523.572 59.677 529.695 63.351C535.93 66.9137 540.884 71.8123 544.558 78.047C548.232 84.2817 550.069 91.2957 550.069 99.089C550.069 105.212 548.956 110.835 546.729 115.956C544.502 120.966 541.496 125.308 537.711 128.982C533.926 132.656 529.584 135.551 524.685 137.666C519.786 139.67 514.665 140.672 509.321 140.672ZM508.987 126.143C513.663 126.143 518.005 124.974 522.013 122.636C526.021 120.298 529.25 117.069 531.699 112.95C534.148 108.831 535.373 104.155 535.373 98.922C535.373 93.6893 534.204 89.069 531.866 85.061C529.639 81.053 526.522 77.9357 522.514 75.709C518.506 73.4823 513.941 72.369 508.82 72.369C503.921 72.369 499.468 73.538 495.46 75.876C491.563 78.214 488.39 81.387 485.941 85.395C483.603 89.403 482.434 93.9677 482.434 99.089C482.434 104.433 483.659 109.165 486.108 113.284C488.557 117.292 491.786 120.465 495.794 122.803C499.913 125.03 504.311 126.143 508.987 126.143Z" fill="black"/>
<path d="M592.749 139.67C587.739 139.67 582.952 138.668 578.387 136.664C573.823 134.66 569.815 131.821 566.363 128.147C563.023 124.473 560.351 120.187 558.347 115.288C556.455 110.278 555.508 104.823 555.508 98.922C555.508 93.1327 556.455 87.7887 558.347 82.89C560.351 77.9913 563.023 73.7607 566.363 70.198C569.815 66.524 573.823 63.685 578.387 61.681C582.952 59.677 587.739 58.675 592.749 58.675C598.205 58.675 603.103 59.677 607.445 61.681C611.899 63.685 615.684 66.524 618.801 70.198C622.03 73.7607 624.479 78.047 626.149 83.057C627.819 87.9557 628.654 93.2997 628.654 99.089C628.766 104.99 627.931 110.389 626.149 115.288C624.479 120.187 622.086 124.473 618.968 128.147C615.851 131.821 612.066 134.66 607.612 136.664C603.27 138.668 598.316 139.67 592.749 139.67ZM594.92 125.475C599.596 125.475 603.771 124.362 607.445 122.135C611.231 119.908 614.181 116.847 616.296 112.95C618.523 108.942 619.636 104.377 619.636 99.256C619.636 94.0233 618.523 89.4587 616.296 85.562C614.181 81.554 611.231 78.4367 607.445 76.21C603.771 73.9833 599.596 72.87 594.92 72.87C590.244 72.87 586.014 73.9833 582.228 76.21C578.443 78.4367 575.437 81.554 573.21 85.562C571.095 89.4587 570.037 94.0233 570.037 99.256C570.037 104.377 571.095 108.942 573.21 112.95C575.437 116.847 578.443 119.908 582.228 122.135C586.125 124.362 590.356 125.475 594.92 125.475ZM627.652 139.67C625.203 139.67 623.422 139.225 622.308 138.334C621.195 137.443 620.527 135.94 620.304 133.825V29.283C620.304 27.613 620.416 26.2213 620.638 25.108C620.972 23.9947 621.64 23.1597 622.642 22.603C623.756 21.935 625.37 21.601 627.485 21.601C629.601 21.601 631.159 21.935 632.161 22.603C633.275 23.1597 633.998 23.9947 634.332 25.108C634.666 26.2213 634.833 27.5573 634.833 29.116V131.988C634.833 133.547 634.666 134.938 634.332 136.163C633.998 137.276 633.33 138.111 632.328 138.668C631.326 139.336 629.768 139.67 627.652 139.67ZM682.779 140.672C677.324 140.672 672.091 139.614 667.081 137.499C662.182 135.384 657.785 132.489 653.888 128.815C649.991 125.03 646.93 120.632 644.703 115.622C642.476 110.612 641.363 105.157 641.363 99.256C641.363 93.4667 642.421 88.1227 644.536 83.224C646.651 78.214 649.602 73.8163 653.387 70.031C657.172 66.2457 661.514 63.2953 666.413 61.18C671.423 58.9533 676.767 57.84 682.445 57.84C690.127 57.84 697.03 59.677 703.153 63.351C709.388 66.9137 714.342 71.8123 718.016 78.047C721.69 84.2817 723.527 91.2957 723.527 99.089C723.527 105.212 722.414 110.835 720.187 115.956C717.96 120.966 714.954 125.308 711.169 128.982C707.384 132.656 703.042 135.551 698.143 137.666C693.244 139.67 688.123 140.672 682.779 140.672ZM682.445 126.143C687.121 126.143 691.463 124.974 695.471 122.636C699.479 120.298 702.708 117.069 705.157 112.95C707.606 108.831 708.831 104.155 708.831 98.922C708.831 93.6893 707.662 89.069 705.324 85.061C703.097 81.053 699.98 77.9357 695.972 75.709C691.964 73.4823 687.399 72.369 682.278 72.369C677.379 72.369 672.926 73.538 668.918 75.876C665.021 78.214 661.848 81.387 659.399 85.395C657.061 89.403 655.892 93.9677 655.892 99.089C655.892 104.433 657.117 109.165 659.566 113.284C662.015 117.292 665.244 120.465 669.252 122.803C673.371 125.03 677.769 126.143 682.445 126.143ZM769.38 140.004C763.591 140.004 758.136 139.058 753.014 137.165C748.004 135.272 743.551 132.545 739.654 128.982C735.869 125.419 732.863 121.189 730.636 116.29C728.521 111.28 727.463 105.602 727.463 99.256C727.463 92.91 728.521 87.2877 730.636 82.389C732.863 77.379 735.869 73.0927 739.654 69.53C743.44 65.9673 747.837 63.2397 752.847 61.347C757.969 59.4543 763.368 58.508 769.046 58.508C772.832 58.508 776.561 59.1203 780.235 60.345C783.909 61.4583 787.138 62.9613 789.921 64.854C792.816 66.6353 794.876 68.528 796.1 70.532C797.214 71.9793 797.993 73.204 798.438 74.206C798.995 75.0967 799.051 76.1543 798.605 77.379C798.16 78.2697 797.548 79.1047 796.768 79.884C795.989 80.552 795.21 81.1087 794.43 81.554C792.426 83.1127 790.422 83.3353 788.418 82.222C787.194 80.9973 785.802 79.884 784.243 78.882C782.796 77.7687 781.237 76.7667 779.567 75.876C777.897 74.9853 776.172 74.3173 774.39 73.872C772.72 73.3153 770.939 73.037 769.046 73.037C763.814 73.037 759.193 74.1503 755.185 76.377C751.177 78.4923 748.06 81.554 745.833 85.562C743.718 89.4587 742.66 94.0233 742.66 99.256C742.66 104.489 743.718 109.053 745.833 112.95C748.06 116.847 751.122 119.908 755.018 122.135C759.026 124.362 763.591 125.475 768.712 125.475C771.05 125.475 773.277 125.197 775.392 124.64C777.619 123.972 779.679 123.137 781.571 122.135C783.464 121.022 785.023 119.853 786.247 118.628C787.361 117.849 788.307 117.181 789.086 116.624C789.866 116.067 790.812 115.789 791.925 115.789C792.816 115.789 793.762 116.179 794.764 116.958C795.766 117.626 796.824 118.684 797.937 120.131C798.828 121.133 799.329 122.191 799.44 123.304C799.663 124.417 799.496 125.475 798.939 126.477C798.383 127.479 797.492 128.481 796.267 129.483C794.486 131.264 792.092 132.99 789.086 134.66C786.192 136.219 783.019 137.499 779.567 138.501C776.116 139.503 772.72 140.004 769.38 140.004ZM833.015 140.505C830.343 140.505 827.56 140.227 824.665 139.67C821.771 139.113 818.932 138.334 816.148 137.332C813.476 136.219 811.083 134.938 808.967 133.491C806.963 132.044 805.46 130.429 804.458 128.648C803.902 127.535 803.568 126.533 803.456 125.642C803.345 124.64 803.512 123.694 803.957 122.803C804.403 121.912 805.071 121.022 805.961 120.131C807.075 118.795 808.188 118.183 809.301 118.294C810.415 118.294 811.806 119.018 813.476 120.465C814.701 121.244 816.148 122.135 817.818 123.137C819.488 124.028 821.214 124.863 822.995 125.642C824.777 126.31 826.558 126.922 828.339 127.479C830.232 127.924 832.069 128.147 833.85 128.147C838.972 128.147 843.091 127.201 846.208 125.308C849.326 123.304 850.884 120.688 850.884 117.459C850.884 115.566 850.495 113.952 849.715 112.616C848.936 111.28 847.878 110.167 846.542 109.276C845.206 108.274 843.703 107.439 842.033 106.771C840.363 106.103 838.471 105.491 836.355 104.934C834.351 104.266 832.347 103.654 830.343 103.097C827.337 102.318 824.387 101.427 821.492 100.425C818.598 99.423 815.981 98.1427 813.643 96.584C811.305 94.914 809.413 92.8543 807.965 90.405C806.518 87.8443 805.794 84.6157 805.794 80.719C805.794 76.1543 806.963 72.202 809.301 68.862C811.639 65.522 814.924 62.9613 819.154 61.18C823.385 59.2873 828.339 58.341 834.017 58.341C836.467 58.341 838.749 58.508 840.864 58.842C842.98 59.176 844.984 59.7327 846.876 60.512C848.88 61.18 850.773 62.015 852.554 63.017C854.336 63.9077 856.061 65.021 857.731 66.357C859.735 67.693 860.793 69.1403 860.904 70.699C861.016 72.2577 860.403 73.872 859.067 75.542C858.065 76.9893 856.952 77.9357 855.727 78.381C854.503 78.715 853.278 78.381 852.053 77.379C850.272 76.043 848.379 74.874 846.375 73.872C844.371 72.87 842.312 72.035 840.196 71.367C838.081 70.699 835.91 70.365 833.683 70.365C830.9 70.365 828.395 70.8103 826.168 71.701C824.053 72.4803 822.383 73.705 821.158 75.375C820.045 76.9337 819.488 78.715 819.488 80.719C819.488 82.5003 819.934 83.9477 820.824 85.061C821.826 86.1743 823.051 87.1207 824.498 87.9C826.057 88.6793 827.838 89.403 829.842 90.071C831.958 90.6277 834.129 91.1843 836.355 91.741C839.584 92.5203 842.868 93.4667 846.208 94.58C849.66 95.582 852.721 96.9737 855.393 98.755C858.177 100.425 860.403 102.707 862.073 105.602C863.855 108.385 864.745 112.115 864.745 116.791C864.745 124.139 861.851 129.928 856.061 134.159C850.272 138.39 842.59 140.505 833.015 140.505Z" fill="#FCA311"/>
</g>
<defs>
<clipPath id="clip0_2316_203">
<rect width="905" height="177" fill="white"/>
</clipPath>
</defs>
</svg>
